# xmcd CD database file
#
# Track frame offsets:
#	150
#	14567
#	33655
#
# Disc length: 638 seconds
#
# Revision: 0
# Processed by: cddbd v1.5.2PL0 Copyright (c) Steve Scherf et al.
# Submitted via: CDex 1.51
#
DISCID=20027c03
DTITLE=Nathan Carter - The Time Of Your Life
DYEAR=2010
DGENRE=Country
TTITLE0=The Time Of Your Life
TTITLE1=Where Do You Go To My Lovely
TTITLE2=Face On The Cutting Room Floor
EXTD=YEAR: 2010
EXTT0=
EXTT1=
EXTT2=
PLAYORDER=
